<?xml version="1.0" standalone="no"?>
<!DOCTYPE svg PUBLIC "-//W3C//DTD SVG 20010904//EN"
 "http://www.w3.org/TR/2001/REC-SVG-20010904/DTD/svg10.dtd">
<svg version="1.0" xmlns="http://www.w3.org/2000/svg"
 width="512.000000pt" height="512.000000pt" viewBox="0 0 512.000000 512.000000"
 preserveAspectRatio="xMidYMid meet">

<g  transform="translate(0.000000,512.000000) scale(0.100000,-0.100000)"
fill="#000000" stroke="none">
<path d="M1683 4889 c-253 -42 -464 -236 -544 -499 l-23 -75 -4 -1006 -3
-1005 -37 -14 c-20 -7 -42 -15 -49 -17 -9 -4 -13 31 -15 139 l-3 143 -177 3
c-133 2 -178 6 -178 15 0 6 11 97 25 201 14 104 25 195 25 203 0 10 -43 13
-223 13 l-223 0 28 -207 c15 -115 27 -211 28 -215 0 -3 -51 -8 -114 -10 -97
-2 -119 -6 -143 -24 -48 -36 -53 -57 -53 -222 0 -257 -8 -252 364 -252 l266 0
0 -505 0 -505 74 0 74 0 4 -107 c2 -88 7 -117 26 -155 49 -100 146 -168 263
-188 35 -5 198 -10 362 -10 l297 0 0 -185 0 -185 830 0 830 0 0 184 0 184 338
4 c321 4 340 5 394 27 120 47 203 156 215 284 l6 67 68 0 69 0 2 543 3 542
280 5 c308 5 311 6 341 68 12 27 15 64 12 197 -3 157 -4 164 -27 189 -14 15
-41 31 -60 37 -23 6 -195 9 -476 7 l-440 -3 -3 -242 -2 -243 -34 -14 c-18 -7
-42 -17 -54 -20 l-22 -7 -2 1158 -3 1158 -30 85 c-60 172 -188 317 -350 395
-158 77 -138 75 -1062 74 -450 -1 -841 -5 -870 -10z m2317 -3259 l0 -50 -1445
0 -1445 0 0 50 0 50 1445 0 1445 0 0 -50z"/>
<path d="M512 3548 c-5 -7 -22 -42 -36 -77 -22 -55 -26 -80 -26 -168 l0 -103
25 0 c25 0 25 0 25 98 0 82 4 109 25 160 29 72 29 70 13 68 -7 0 -13 4 -13 9
0 6 6 9 12 9 7 -1 10 2 7 7 -7 13 -20 11 -32 -3z"/>
</g>
</svg>
